<svg xmlns="http://www.w3.org/2000/svg" xmlns:svg="http://www.w3.org/2000/svg" id="svg8" width="210mm" height="297mm" version="1.1" viewBox="0 0 210 297"><metadata id="metadata5"/><g id="layer1"><g id="g5148" transform="matrix(1.2895132,0,0,1.2895132,17.318454,-45.660782)" style="stroke-width:.77548647"><rect id="rect4583-2" width="1.579" height="64.134" x="70.812" y="83.081" rx=".385" ry=".385" transform="rotate(15.825039)" style="opacity:1;stroke-width:.13958775"/><rect id="rect4583-2-9" width="1.579" height="64.134" x="84.254" y="80.091" rx=".385" ry=".385" transform="rotate(14.613482)" style="opacity:1;stroke-width:.13958773"/><rect id="rect4583-2-9-1" width="1.536" height="63.588" x="88.455" y="80.638" rx=".385" ry=".385" transform="matrix(0.97355728,0.22844303,-0.2193748,0.97564066,0,0)" style="opacity:1;stroke-width:.13959076"/><rect id="rect4583-2-9-1-2" width="1.579" height="64.134" x="101.639" y="79.852" rx=".385" ry=".385" transform="rotate(11.263494)" style="opacity:1;stroke-width:.13958775"/><rect id="rect4583-2-9-1-7" width="1.579" height="64.134" x="110.783" y="79.824" rx=".385" ry=".385" transform="rotate(9.9930526)" style="opacity:1;stroke-width:.13958773"/><rect id="rect4583-0" width="1.579" height="17.199" x="129.304" y="-53.909" rx=".385" ry=".385" transform="rotate(90)" style="opacity:1;stroke-width:.13958775"/><rect id="rect4583-0-9" width="1.579" height="10.401" x="98.88" y="-78.79" rx=".385" ry=".385" transform="rotate(90)" style="opacity:1;stroke-width:.13958775"/><rect id="rect4583-0-9-3" width="1.579" height="8.891" x="129.52" y="-71.086" rx=".385" ry=".385" transform="rotate(90)" style="opacity:1;stroke-width:.13958775"/><rect id="rect4583-0-9-6" width="1.579" height="10.783" x="159.73" y="-65.755" rx=".385" ry=".385" transform="rotate(90)" style="opacity:1;stroke-width:.13958775"/><rect id="rect4583-0-9-6-0" width="1.579" height="10.783" x="160.054" y="-82.584" rx=".385" ry=".385" transform="rotate(90)" style="opacity:1;stroke-width:.13958775"/><rect id="rect4583-0-9-6-6" width="1.579" height="18.12" x="125.658" y="-116.085" rx=".385" ry=".385" transform="rotate(93.541259)" style="opacity:1;stroke-width:.13958773"/><rect id="rect4583-26" width="1.579" height="37.583" x="58.546" y="123.849" rx=".385" ry=".385" transform="rotate(-18.794356)" style="opacity:1;stroke-width:.13958775"/><rect id="rect4583-26-1" width="1.579" height="37.583" x="66.491" y="126.595" rx=".385" ry=".385" transform="rotate(-18.794356)" style="opacity:1;stroke-width:.13958775"/><rect id="rect4583-26-1-8" width="1.557" height="36.874" x="167.616" y="-73.701" rx=".385" ry=".385" transform="matrix(0.78388941,0.62090046,0.63978911,-0.76855051,0,0)" style="opacity:1;stroke-width:.1396084"/><rect id="rect4583-26-1-7" width="1.579" height="37.583" x="-154.129" y="51.157" rx=".385" ry=".385" transform="matrix(-0.946681,-0.32217243,-0.32217243,0.946681,0,0)" style="opacity:1;stroke-width:.13958775"/><rect id="rect4583-26-1-7-9" width="1.579" height="37.583" x="-174.803" y="31.496" rx=".385" ry=".385" transform="matrix(-0.78490188,-0.61962008,-0.61962008,0.78490188,0,0)" style="opacity:1;stroke-width:.13958773"/><path id="path5040" d="m 9.1318041,134.16336 9.2556529,-11.05974 15.621572,-20.66252 -7.538718,22.92011 17.061715,-0.49343 -21.246232,8.85575 z" style="opacity:1;fill:#ff0;stroke-width:.20518078"/><path id="path5040-2" d="M 44.076878,124.93435 32.909497,137.2913 14.768719,158.54335 25.920801,134.32863 9.5295621,134.71585 29.96438,126.36861 Z" style="opacity:1;fill:#ff0;stroke-width:.20518078"/><g id="g5038" transform="matrix(2.2836689,0,0,2.2836689,-86.702222,-165.44701)" style="stroke-width:.33957916"><rect style="opacity:1;stroke-width:.06112433" id="rect4583-02" width=".692" height="19.798" x="112.911" y="59.01" rx=".168" ry=".168" transform="rotate(37.652614)"/><rect style="opacity:1;stroke-width:.06113337" id="rect4583-02-3" width=".748" height="21.377" x="126.108" y="61.333" rx=".168" ry=".168" transform="matrix(0.7736638,0.63359634,-0.65221239,0.75803628,0,0)"/><rect style="opacity:1;stroke-width:.06112433" id="rect4583-7" width=".692" height="8.334" x="132.262" y="-45.966" rx=".168" ry=".168" transform="rotate(88.352779)"/><rect style="opacity:1;stroke-width:.06112441" id="rect4583-7-5" width=".692" height="8.668" x="127.998" y="-54.097" rx=".168" ry=".168" transform="matrix(0.02989718,0.99955298,-0.999618,0.02763806,0,0)"/><rect style="opacity:1;stroke-width:.06114391" id="rect4583-9" width=".657" height="12.13" x="91.048" y="86.121" rx=".168" ry=".168" transform="matrix(0.92183908,0.38757284,-0.35434456,0.93511493,0,0)"/><rect style="opacity:1;stroke-width:.06115824" id="rect4583-9-2" width=".706" height="12.974" x="102.197" y="90.883" rx=".168" ry=".168" transform="matrix(0.87535367,0.48348315,-0.44173797,0.89714412,0,0)"/></g></g></g></svg>